Coordinates
version=1
nRows=11
nColumns=42
inDegrees=yes

Units are S.I. units (second, meters, Newtons, ...)
If the header above contains a line with 'inDegrees', this indicates whether rotational values are in degrees (yes) or radians (no).

endheader
time	pelvis_tilt	pelvis_list	pelvis_rotation	pelvis_tx	pelvis_ty	pelvis_tz	hip_flexion_r	hip_adduction_r	hip_rotation_r	knee_angle_r	knee_adduction_r	knee_angle_r_beta	ankle_angle_r	subtalar_angle_r	mtp_angle_r	hip_flexion_l	hip_adduction_l	hip_rotation_l	knee_angle_l	knee_adduction_l	knee_angle_l_beta	ankle_angle_l	subtalar_angle_l	mtp_angle_l	lumbar_extension	lumbar_bending	lumbar_rotation	arm_flex_r	arm_add_r	arm_rot_r	elbow_flex_r	pro_sup_r	wrist_flex_r	wrist_dev_r	arm_flex_l	arm_add_l	arm_rot_l	elbow_flex_l	pro_sup_l	wrist_flex_l	wrist_dev_l
      0.88000000	     14.53819679	     -1.73433795	      6.01767586	     -1.48317545	      0.89814726	      0.15140443	     -6.70521436	      5.22791552	    -32.23967811	     16.80145939	     -4.95051618	      0.29324079	     21.42270169	     38.55366645	     -7.69478981	     -6.19221963	     -4.18098708	    -18.18588463	     52.25319558	    -17.31185208	      0.91199031	     21.50154650	     21.51697041	     -7.69478981	    -40.00371005	      7.53726863	     -3.84109073	      4.63687452	    -14.79655514	      9.12101365	     47.37276585	     90.00000001	      0.00000000	      0.00000000	     11.13895018	    -13.50060793	      1.00313276	     48.89969500	     90.00000001	      0.00000000	      0.00000000
      0.89000000	     14.62120469	     -1.59024033	      5.97373874	     -1.47105528	      0.89893035	      0.15206621	     -8.04981640	      5.32183073	    -31.64396361	     16.12666999	     -4.62878879	      0.28146349	     21.92425800	     38.45231027	     -7.68572785	     -4.44570990	     -3.90782561	    -17.77771760	     52.16364969	    -16.86575088	      0.91042744	     22.31052913	     19.90895973	     -7.68572785	    -40.24512348	      7.27304418	     -3.63207520	      5.06045480	    -15.23869454	      9.66857211	     47.93264964	     90.00000001	      0.00000000	      0.00000000	     10.54568859	    -13.36448014	      0.67662869	     48.61859467	     90.00000001	      0.00000000	      0.00000000
      0.90000000	     14.55338487	     -1.43582934	      5.85978545	     -1.45886617	      0.89918599	      0.15278278	     -9.17487861	      5.35010790	    -31.15977492	     15.57142018	     -4.36222931	      0.27177255	     22.46610269	     38.36102751	     -7.68298941	     -2.56009204	     -3.60859181	    -17.92978818	     51.74133846	    -16.72295079	      0.90305672	     22.89748290	     19.29864068	     -7.68298941	    -40.29176700	      6.95050457	     -3.36069043	      5.45064627	    -15.52330020	      9.67564488	     48.31461344	     90.00000001	      0.00000000	      0.00000000	      9.90136001	    -13.30383723	      0.62761856	     48.35693340	     90.00000001	      0.00000000	      0.00000000
      0.91000000	     14.86432444	     -1.35305669	      5.62928433	     -1.44634366	      0.89978848	      0.15348743	    -10.87085404	      5.53724501	    -30.11484737	     14.70324256	     -4.01885836	      0.25661999	     22.99431743	     38.24432161	     -7.67649613	     -1.31247342	     -3.37917008	    -18.14432216	     50.84019954	    -16.47643214	      0.88732887	     23.57473450	     18.39006291	     -7.67649613	    -40.73052996	      6.67919363	     -2.94824949	      5.84126538	    -16.02979069	     10.07129146	     48.93230681	     90.00000001	      0.00000000	      0.00000000	      9.23439500	    -13.12312198	      0.31161156	     48.17608746	     90.00000001	      0.00000000	      0.00000000
      0.92000000	     14.92247185	     -1.31233809	      5.41170445	     -1.43400529	      0.89971509	      0.15427960	    -12.17689379	      5.72658682	    -29.34890752	     14.00264413	     -3.81358285	      0.24439224	     23.59529669	     38.19228280	     -7.67285794	      0.26022768	     -3.20974581	    -18.45190187	     49.86651177	    -16.24929903	      0.87033482	     24.10003707	     17.74866465	     -7.67285794	    -40.88744434	      6.41975893	     -2.52217059	      6.24775220	    -16.39636303	     10.15967214	     49.32092666	     90.00000001	      0.00000000	      0.00000000	      8.55555033	    -13.00335804	      0.16562407	     47.96571848	     90.00000001	      0.00000000	      0.00000000
      0.93000000	     15.24324543	     -1.23611328	      5.05505356	     -1.42124097	      0.89985741	      0.15507621	    -13.95263366	      5.87390231	    -28.15378002	     13.01827657	     -3.46193844	      0.22721179	     23.87551167	     37.95635609	     -7.66631180	      1.29462830	     -3.01702118	    -18.99283993	     48.36144283	    -15.97111790	      0.84406641	     24.38363939	     17.35387367	     -7.66631180	    -41.27852962	      6.07579490	     -2.01461725	      6.61246648	    -16.88811082	     10.46550940	     49.84493893	     90.00000001	      0.00000000	      0.00000000	      7.80828688	    -12.81695620	     -0.21695501	     47.87037334	     90.00000001	      0.00000000	      0.00000000
      0.94000000	     15.17485411	     -1.30448724	      4.83232958	     -1.40903744	      0.89912764	      0.15587811	    -15.07212413	      6.18023762	    -27.45447089	     12.34284435	     -3.40454362	      0.21542327	     24.48465394	     37.80208535	     -7.66345042	      2.89732096	     -2.95052176	    -19.27116243	     46.95037849	    -15.65166920	      0.81943869	     24.69538190	     16.88153442	     -7.66345042	    -41.29060510	      5.89492713	     -1.49062358	      7.03157826	    -17.26172899	     10.45019642	     50.12145900	     90.00000001	      0.00000000	      0.00000000	      7.14905498	    -12.66877674	     -0.35077374	     47.70347746	     90.00000001	      0.00000000	      0.00000000
      0.95000000	     15.58257017	     -1.24159287	      4.43113290	     -1.39603716	      0.89892058	      0.15663351	    -17.06487140	      6.26392431	    -26.17451271	     11.19186988	     -2.94765045	      0.19533498	     24.73274343	     37.65452500	     -7.65823635	      3.65130692	     -2.82129927	    -20.00267825	     44.96271561	    -15.29289344	      0.78474743	     24.79782579	     16.82772477	     -7.65823635	    -41.72617333	      5.54499305	     -0.93633552	      7.35563501	    -17.71525038	     10.61285451	     50.55042830	     90.00000001	      0.00000000	      0.00000000	      6.37649534	    -12.45297116	     -0.85679072	     47.58587724	     90.00000001	      0.00000000	      0.00000000
      0.96000000	     15.67930386	     -1.30189719	      4.16449833	     -1.38352327	      0.89803745	      0.15730125	    -18.55941115	      6.51730733	    -25.23940583	     10.20330946	     -2.76046845	      0.17808134	     25.10101897	     37.50460400	     -7.65364506	      4.82998848	     -2.79003029	    -20.44970918	     42.98102743	    -14.84623143	      0.75016044	     24.83267730	     16.92228897	     -7.65364506	    -41.86940138	      5.36066136	     -0.41756527	      7.75685914	    -18.10214573	     10.63266240	     50.81695301	     90.00000001	      0.00000000	      0.00000000	      5.68128772	    -12.25608580	     -1.21172305	     47.43164300	     90.00000001	      0.00000000	      0.00000000
      0.97000000	     15.82799640	     -1.34829532	      3.90202698	     -1.37077696	      0.89700448	      0.15790040	    -20.18538121	      6.73438376	    -24.29738573	      9.13663240	     -2.51369025	      0.15946432	     25.14189025	     37.17746573	     -7.64692747	      5.81994780	     -2.73807772	    -20.97109536	     40.69513566	    -14.37842942	      0.71026411	     24.71089686	     17.52278737	     -7.64692747	    -42.03150149	      5.16468409	      0.05098873	      8.11712639	    -18.47542658	     10.63419632	     51.12434927	     90.00000001	      0.00000000	      0.00000000	      4.92638077	    -12.07179742	     -1.69022801	     47.31617993	     90.00000001	      0.00000000	      0.00000000
      0.98000000	     15.78480813	     -1.50896254	      3.74411736	     -1.35836095	      0.89542777	      0.15848122	    -21.50959747	      7.08103981	    -23.74374462	      8.17685003	     -2.36485716	      0.14271296	     25.61000845	     37.22190536	     -7.64313148	      7.05089081	     -2.83744405	    -20.96422527	     38.51082017	    -13.56994720	      0.67214061	     24.46518291	     17.84313469	     -7.64313148	    -42.00480100	      5.12208705	      0.53041580	      8.49980304	    -18.80482473	     10.50813888	     51.29613385	     90.00000001	      0.00000000	      0.00000000	      4.28630830	    -11.90646204	     -2.01462714	     47.03700938	     90.00000001	      0.00000000	      0.00000000
